<svg width="188" height="43" viewBox="0 0 188 43" fill="none" xmlns="http://www.w3.org/2000/svg">
<path d="M0.692139 41.2879V35.5242H5.55557V6.419H0.692139V0.655273H17.7416V6.419H12.8781V35.5242H17.7416V41.2879H0.692139Z" fill="#131313"/>
<path d="M30.8617 18.1785L27.9903 11.1309H27.166L27.6331 18.4107V41.2879H20.7639V0.655273H28.9108L40.1626 23.7919L43.034 30.8394H43.8583L43.3911 23.5598V0.655273H50.2604V41.2879H42.2096L30.8617 18.1785Z" fill="#131313"/>
<path d="M54.7529 0.655435H68.6837C70.9337 0.62108 73.1704 1.00559 75.2782 1.78907C77.2067 2.54251 78.9026 3.78583 80.1965 5.39481C81.6546 7.26634 82.7029 9.42026 83.274 11.7184C84.6845 17.8076 84.6845 24.1359 83.274 30.2251C82.7029 32.5232 81.6546 34.6772 80.1965 36.5487C78.9067 38.1619 77.2096 39.4061 75.2782 40.1544C73.1722 40.9445 70.9343 41.3292 68.6837 41.288H54.7529V0.655435ZM68.6837 34.8824C69.7594 34.9498 70.8367 34.7803 71.8389 34.3861C72.8411 33.9918 73.7434 33.3825 74.4813 32.6015C75.9845 30.652 76.7175 28.2227 76.5421 25.7725V16.2119C76.7163 13.7619 75.9833 11.3331 74.4813 9.38292C73.7411 8.60502 72.8384 7.99769 71.8368 7.60365C70.8352 7.2096 69.759 7.03842 68.6837 7.10206H62.0755V34.9234L68.6837 34.8824Z" fill="#131313"/>
<path d="M87.2581 41.2881V0.655474H104.184C105.709 0.553026 107.237 0.798867 108.651 1.37414C110.066 1.94941 111.329 2.83883 112.344 3.97436C114.17 6.6762 115.144 9.85704 115.144 13.1116C115.144 16.3661 114.17 19.5469 112.344 22.2488C111.329 23.3843 110.066 24.2737 108.651 24.849C107.237 25.4243 105.709 25.6701 104.184 25.5677H94.5669V41.2881H87.2581ZM94.5806 19.1621H103.414C104.496 19.2222 105.559 18.865 106.382 18.1651C106.774 17.7219 107.072 17.2039 107.256 16.6427C107.44 16.0815 107.507 15.4887 107.454 14.9008V11.3224C107.509 10.7365 107.442 10.1455 107.258 9.58628C107.074 9.02705 106.775 8.5115 106.382 8.07176C105.565 7.35919 104.499 6.99597 103.414 7.06108H94.5806V19.1621Z" fill="#131313"/>
<path d="M124.64 41.288H117.332V0.655462H134.257C135.78 0.549251 137.306 0.787853 138.722 1.35328C140.138 1.91872 141.406 2.79625 142.432 3.91975C144.41 6.52377 145.384 9.74565 145.179 13.0023C145.279 15.6436 144.672 18.264 143.421 20.5961C142.285 22.5593 140.445 24.023 138.269 24.6935L145.701 41.288H137.802L131.056 25.2809H124.64V41.288ZM133.488 19.2303C134.563 19.2921 135.621 18.9399 136.442 18.247C136.845 17.8019 137.15 17.2779 137.336 16.7086C137.523 16.1394 137.588 15.5375 137.527 14.9418V11.3497C137.588 10.754 137.523 10.1521 137.336 9.58285C137.15 9.01359 136.845 8.48948 136.442 8.04441C135.621 7.35145 134.563 6.99934 133.488 7.06107H124.64V19.2303H133.488Z" fill="#131313"/>
<path d="M162.504 41.9984C160.234 42.0289 157.981 41.6207 155.868 40.7965C153.892 40.006 152.156 38.7216 150.826 37.0678C149.315 35.1394 148.22 32.9215 147.611 30.553C146.079 24.2702 146.079 17.7145 147.611 11.4318C148.225 9.06504 149.319 6.84801 150.826 4.91687C152.156 3.26307 153.892 1.97874 155.868 1.18826C160.153 -0.396088 164.868 -0.396088 169.153 1.18826C171.129 1.97874 172.866 3.26307 174.195 4.91687C175.702 6.84801 176.796 9.06504 177.41 11.4318C178.942 17.7145 178.942 24.2702 177.41 30.553C176.801 32.9215 175.706 35.1394 174.195 37.0678C172.866 38.7216 171.129 40.006 169.153 40.7965C167.036 41.6208 164.778 42.0289 162.504 41.9984ZM162.504 35.5928C163.651 35.661 164.799 35.4731 165.864 35.043C166.929 34.6129 167.884 33.9514 168.659 33.107C170.227 31.0914 170.999 28.5749 170.829 26.0322V15.9116C170.996 13.3692 170.225 10.8536 168.659 8.83672C167.006 7.23165 164.787 6.33311 162.476 6.33311C160.166 6.33311 157.947 7.23165 156.294 8.83672C154.728 10.8536 153.956 13.3692 154.123 15.9116V26.0322C153.954 28.5749 154.726 31.0914 156.294 33.107C157.074 33.9597 158.037 34.6261 159.113 35.0565C160.188 35.487 161.347 35.6703 162.504 35.5928Z" fill="#131313"/>
<path d="M186.615 40.9196C184.766 42.3848 181.838 42.389 179.993 40.9196C179.622 40.551 179.333 40.1086 179.146 39.6214C178.959 39.1341 178.878 38.6131 178.908 38.0924V36.7266C178.878 36.206 178.959 35.685 179.146 35.1978C179.519 34.228 180.402 33.5389 181.383 33.199C181.997 32.9864 182.646 32.876 183.304 32.876C183.963 32.876 184.613 32.9868 185.228 33.2002C186.207 33.5399 187.083 34.232 187.45 35.2008C187.635 35.6876 187.715 36.2072 187.686 36.7266V38.0924C187.715 38.6118 187.635 39.1316 187.45 39.6184C187.266 40.1052 186.981 40.5483 186.615 40.9196Z" fill="#131313"/>
</svg>
