<svg xmlns="http://www.w3.org/2000/svg" width="32" height="32" viewBox="0 0 24 24" id="java"><path fill="#444" d="M12.034 13.666a.495.495 0 0 1-.274-.082C11.647 13.51 9 11.744 9 9.5c0-2.381 1.709-3.63 3.217-4.733 1.225-.896 2.283-1.67 2.283-2.868 0-.665-.419-.994-.424-.998a.5.5 0 0 1 .595-.803c.034.025.828.627.828 1.8 0 1.706-1.369 2.707-2.693 3.675C11.363 6.63 10 7.626 10 9.5c0 1.704 2.287 3.233 2.31 3.249a.5.5 0 0 1-.276.917z"></path><path fill="#444" d="M14 13.5a.5.5 0 0 1-.5-.5c0-.811-.275-1.107-.624-1.483-.39-.42-.876-.944-.876-2.108 0-2.235 4.278-4.589 4.766-4.85a.5.5 0 1 1 .472.882C15.6 6.319 13 8.172 13 9.409c0 .771.255 1.047.609 1.428.397.428.891.96.891 2.163a.5.5 0 0 1-.5.5z"></path><path fill="#444" d="M9.044 16.021c-1.799 0-3.321-.208-3.998-.628-.451-.281-.546-.624-.546-.862 0-1.191 2.375-1.779 3.79-2.024a.5.5 0 0 1 .171.985c-1.42.246-2.833.754-2.965 1.066.551.727 7.976.752 11.361-.924a.5.5 0 1 1 .443.897c-1.994.987-5.459 1.49-8.256 1.49zm1.88 2.249c-3.212 0-3.62-1.279-3.67-1.556a.5.5 0 0 1 .978-.207c.101.27.934.913 3.588.731 3.199-.218 3.762-.741 3.784-.763.125-.247.401-.307.646-.183.247.124.32.463.196.71-.18.356-1.012.991-4.558 1.233-.346.024-.667.035-.964.035zm.493 1.994c-2.155 0-3.578-.778-3.667-.828a.499.499 0 1 1 .489-.872c.116.064 2.895 1.559 6.563-.022a.5.5 0 1 1 .396.918c-1.397.602-2.684.804-3.781.804z"></path><path fill="#444" d="M7.846 22.304c-1.742 0-3.155-.118-3.764-.365-.506-.205-.582-.535-.582-.713 0-.994 1.65-1.583 2.359-1.792a.5.5 0 0 1 .281.96c-.604.177-1.228.473-1.503.694 2.043.625 12.955-.098 14.251-1.433a.5.5 0 0 1 .718.696c-1.206 1.243-7.478 1.953-11.76 1.953z"></path><path fill="#444" d="M9.24 23.992c-1.885 0-3.386-.144-4.023-.368a.5.5 0 1 1 .331-.943c1.783.626 11.376.526 15.445-1.912a.5.5 0 0 1 .514.858c-2.939 1.761-8.407 2.365-12.267 2.365zm7.73-5.79a.5.5 0 0 1-.195-.96c.967-.409 3.726-1.881 3.726-3.233 0-.338-.12-.462-.209-.525-.479-.338-1.713-.06-2.234.127a.5.5 0 0 1-.34-.941c.213-.078 2.114-.731 3.148-.005.29.204.635.602.635 1.344 0 2.258-3.893 3.967-4.336 4.154a.526.526 0 0 1-.195.039z"></path></svg>